<?xml version="1.0" encoding="utf-8"?>
<!-- Generator: Adobe Illustrator 23.1.0, SVG Export Plug-In . SVG Version: 6.00 Build 0)  -->
<svg version="1.1" id="Layer_1" xmlns="http://www.w3.org/2000/svg" xmlns:xlink="http://www.w3.org/1999/xlink" x="0px" y="0px"
	 viewBox="0 0 416 72" style="enable-background:new 0 0 416 72;" xml:space="preserve">
<style type="text/css">
	.st0{fill:#FFFFFF;}
	.st1{fill:#86DB23;}
	.st2{fill:#BFF747;}
	.st3{font-family:'Teko-Medium';}
	.st4{font-size:6.846px;}
</style>
<g>
	<path class="st0" d="M63.02,6.54h12.09c2.19,0,3.75,0.47,4.67,1.4c0.92,0.93,1.38,2.17,1.38,3.7v3.37c0,1.07-0.13,2-0.39,2.8
		c-0.26,0.8-0.79,1.41-1.58,1.85c0.79,0.36,1.32,0.89,1.58,1.6c0.26,0.71,0.39,1.59,0.39,2.63v3.95c0,1.54-0.46,2.77-1.38,3.7
		c-0.92,0.93-2.47,1.4-4.67,1.4H63.02V6.54z M74.08,16.45v-4.28c0-0.3-0.08-0.53-0.25-0.68c-0.16-0.15-0.43-0.23-0.78-0.23h-2.96
		v6.09h2.96c0.36,0,0.62-0.07,0.78-0.23C74,16.97,74.08,16.75,74.08,16.45 M74.08,27.3v-4.32c0-0.3-0.08-0.53-0.25-0.68
		c-0.16-0.15-0.43-0.23-0.78-0.23h-2.96v6.13h2.96c0.36,0,0.62-0.08,0.78-0.23C74,27.83,74.08,27.6,74.08,27.3"/>
	<rect x="84.24" y="6.54" class="st0" width="7.2" height="26.4"/>
	<path class="st0" d="M110.64,11.68H93.29V6.54h17.35V11.68z M98.34,9h7.2v23.93h-7.2V9z"/>
	<path class="st0" d="M70.01,44.7v15.13c0,0.3,0.08,0.53,0.25,0.68c0.16,0.15,0.42,0.23,0.78,0.23h1.07v4.73h-3.25
		c-2.19,0-3.75-0.47-4.67-1.4c-0.92-0.93-1.38-2.17-1.38-3.7v-16.2c0-1.53,0.46-2.77,1.38-3.7c0.92-0.93,2.47-1.4,4.67-1.4h3.25
		v4.73h-1.07c-0.36,0-0.62,0.08-0.78,0.23C70.09,44.17,70.01,44.4,70.01,44.7 M73.51,48.93V44.7c0-0.3-0.08-0.53-0.25-0.68
		c-0.16-0.15-0.43-0.23-0.78-0.23h-1.07v-4.73h3.25c2.19,0,3.75,0.47,4.67,1.4c0.92,0.93,1.38,2.17,1.38,3.7v4.77H73.51z
		 M73.51,59.83v-4.07h7.2v4.61c0,1.54-0.46,2.77-1.38,3.7c-0.92,0.93-2.47,1.4-4.67,1.4h-3.25v-4.73h1.07
		c0.36,0,0.62-0.08,0.78-0.23C73.42,60.36,73.51,60.13,73.51,59.83"/>
	<path class="st0" d="M83.38,39.06h7.2v26.4h-7.2V39.06z M94.44,50.29v-5.18c0-0.3-0.08-0.53-0.25-0.68
		c-0.16-0.15-0.43-0.23-0.78-0.23h-7.65v-5.14h9.83c2.19,0,3.75,0.47,4.67,1.4c0.92,0.93,1.38,2.17,1.38,3.7v6.83
		c0,1.54-0.46,2.77-1.38,3.7c-0.92,0.93-2.47,1.4-4.67,1.4h-9.83v-4.89h7.65c0.36,0,0.62-0.08,0.78-0.23
		C94.36,50.82,94.44,50.59,94.44,50.29 M89.75,53.21h7.03l6.17,12.25h-7.73L89.75,53.21z"/>
	<path class="st0" d="M125.2,65.46h-7.24l-3.95-18.55l-4.07,18.55h-7.07l6.79-26.4h8.76L125.2,65.46z M120.67,61.52h-13.2v-5.1h13.2
		V61.52z"/>
	<polygon class="st0" points="152.05,39.06 159.16,39.06 153.57,65.46 145.3,65.46 142.38,49.71 139.47,65.46 131.2,65.46 
		125.61,39.06 133.09,39.06 135.31,56.83 138.85,39.06 145.88,39.06 149.42,56.83 	"/>
	<path class="st0" d="M161.22,39.06h7.2v26.4h-7.2V39.06z M163.6,60.32h12.99v5.14H163.6V60.32z"/>
	<path class="st0" d="M178.24,39.06h7.2v26.4h-7.2V39.06z M194.07,44.2h-13.28v-5.14h13.28V44.2z M194.44,65.46h-13.65v-5.14h13.65
		V65.46z M192.88,54.73h-11.56v-5.14h11.56V54.73z"/>
	<path class="st0" d="M196.71,39.06h7.2v26.4h-7.2V39.06z M207.77,50.29v-5.18c0-0.3-0.08-0.53-0.25-0.68
		c-0.16-0.15-0.43-0.23-0.78-0.23h-7.65v-5.14h9.83c2.19,0,3.75,0.47,4.67,1.4c0.92,0.93,1.38,2.17,1.38,3.7v6.83
		c0,1.54-0.46,2.77-1.38,3.7c-0.92,0.93-2.47,1.4-4.67,1.4h-9.83v-4.89h7.65c0.36,0,0.62-0.08,0.78-0.23
		C207.68,50.82,207.77,50.59,207.77,50.29 M203.08,53.21h7.03l6.17,12.25h-7.73L203.08,53.21z"/>
	<path class="st0" d="M227.96,59.42v-3.74c0-0.3-0.08-0.53-0.25-0.68c-0.16-0.15-0.43-0.23-0.78-0.23h-3.95
		c-2.14,0-3.6-0.48-4.38-1.44c-0.78-0.96-1.17-2.21-1.17-3.74v-5.43c0-1.53,0.45-2.77,1.36-3.7c0.9-0.93,2.45-1.4,4.65-1.4h5.63
		c2.19,0,3.74,0.47,4.65,1.4c0.9,0.93,1.36,2.17,1.36,3.7v3.17h-7.2v-2.22c0-0.3-0.08-0.53-0.25-0.68
		c-0.16-0.15-0.43-0.23-0.78-0.23h-1.19c-0.36,0-0.62,0.08-0.78,0.23c-0.16,0.15-0.25,0.38-0.25,0.68v3.91
		c0,0.3,0.08,0.53,0.25,0.68c0.16,0.15,0.42,0.23,0.78,0.23h3.87c2.14,0,3.61,0.45,4.42,1.36c0.81,0.9,1.21,2.12,1.21,3.66v5.43
		c0,1.54-0.45,2.77-1.36,3.7c-0.9,0.93-2.45,1.4-4.65,1.4h-5.59c-2.19,0-3.75-0.47-4.67-1.4c-0.92-0.93-1.38-2.17-1.38-3.7V57.2h7.2
		v2.22c0,0.3,0.08,0.53,0.25,0.68c0.16,0.15,0.42,0.23,0.78,0.23h1.19c0.36,0,0.62-0.08,0.78-0.23
		C227.88,59.95,227.96,59.72,227.96,59.42"/>
	<path class="st1" d="M17.24,22.01v-0.55c0-6.29,0-12.59,0-18.88c0-1.51,0.67-2.17,2.18-2.17c7.61,0,15.23,0,22.84,0
		c1.51,0,2.19,0.67,2.19,2.17c0,3.72,0,7.45,0,11.17c0,1.39-0.7,2.09-2.1,2.09c-6.35,0-12.7,0.01-19.05-0.01
		c-0.46,0-0.76,0.14-1.05,0.49c-1.62,1.92-3.26,3.82-4.9,5.73C17.32,22.04,17.28,22.03,17.24,22.01 M23.06,8.61
		c0.18-0.19,0.3-0.33,0.43-0.46c0.83-0.83,1.66-1.65,2.48-2.49c0.44-0.45,0.44-0.98,0.05-1.36c-0.37-0.36-0.89-0.36-1.31,0.06
		c-1.18,1.17-2.36,2.34-3.52,3.53c-0.41,0.41-0.47,0.88-0.1,1.26c1.22,1.26,2.46,2.5,3.72,3.73c0.37,0.36,0.89,0.3,1.23-0.04
		c0.34-0.34,0.36-0.82,0.04-1.23c-0.1-0.13-0.23-0.25-0.35-0.37C24.86,10.39,23.98,9.53,23.06,8.61 M38.63,8.57
		c-0.19,0.19-0.31,0.33-0.44,0.46c-0.83,0.83-1.66,1.65-2.48,2.49c-0.42,0.43-0.43,0.94-0.07,1.31c0.36,0.38,0.9,0.4,1.31,0
		c1.21-1.19,2.41-2.39,3.6-3.61c0.36-0.37,0.41-0.85,0.04-1.23c-1.22-1.26-2.47-2.5-3.73-3.72c-0.37-0.36-0.89-0.29-1.22,0.06
		c-0.33,0.35-0.34,0.83-0.02,1.23c0.09,0.12,0.21,0.22,0.31,0.33C36.82,6.77,37.7,7.64,38.63,8.57 M28.31,13.11
		c0.12-0.08,0.39-0.22,0.58-0.43c0.31-0.35,0.57-0.75,0.86-1.12c1.46-1.95,2.92-3.89,4.37-5.84c0.15-0.21,0.3-0.45,0.34-0.7
		c0.06-0.41-0.15-0.73-0.54-0.9c-0.42-0.18-0.8-0.07-1.06,0.28c-1.83,2.42-3.65,4.85-5.46,7.28c-0.04,0.06-0.08,0.13-0.1,0.2
		C27.06,12.48,27.5,13.12,28.31,13.11"/>
	<path class="st2" d="M12.97,43.02c0.23,0.02,0.47,0.03,0.71,0.03c6.63,0.01,13.26,0.01,19.89,0c0.25,0,0.49-0.01,0.73-0.03
		C27.19,43.02,20.08,43.02,12.97,43.02"/>
	<path class="st2" d="M41.44,37.03c0.11-0.4,0.18-0.8,0.28-1.24c1.33,0.08,2.59-0.08,3.66-0.92c1.09-0.85,1.69-1.97,1.78-3.34
		c0.08-1.14-0.26-2.17-0.96-3.06c-1.15-1.46-2.73-1.86-4.49-1.73c-0.03-0.16-0.06-0.25-0.07-0.34c-0.63-3.99-4-6.9-8.04-6.92
		c-4.12-0.01-8.24-0.01-12.36,0.01c-0.24,0-0.55,0.13-0.71,0.31c-0.83,0.91-1.61,1.85-2.41,2.79c-0.31,0.37-0.66,0.65-1.17,0.46
		c-0.5-0.18-0.62-0.6-0.61-1.09c0.01-0.81,0-1.61,0-2.41c-5.36-0.61-9.78,1.36-10.89,7.17H4.57c-0.01-0.11-0.02-0.19-0.02-0.26
		c0-3.76,0-7.52-0.01-11.28c0-0.34,0.16-0.44,0.41-0.58c1.1-0.61,1.63-1.84,1.32-3.03c-0.31-1.21-1.37-2.05-2.6-2.06
		c-1.23-0.01-2.32,0.81-2.65,2c-0.33,1.2,0.16,2.46,1.26,3.05c0.39,0.21,0.46,0.44,0.46,0.84c-0.01,3.7-0.01,7.41,0,11.11
		c0,0.42-0.09,0.66-0.49,0.89c-1.62,0.92-2.5,2.79-2.19,4.56c0.34,1.97,1.73,3.42,3.65,3.76c0.57,0.1,1.16,0.1,1.76,0.14
		c0.02,0.08,0.06,0.17,0.07,0.26c0.34,2.04,1.34,3.77,2.77,5c-0.61,0-1.21,0.02-1.82,0.05c-3.05,0.17-5.57,2.87-5.63,5.92
		c-0.07,3.56,2.63,6.35,6.2,6.4c0.75,0.01,1.5,0,2.34,0c-0.11,0.25-0.18,0.4-0.26,0.55C8.58,55.12,8,56.21,7.42,57.31
		c-0.38,0.72-0.33,1.01,0.25,1.59c1.31,1.31,2.62,2.63,3.94,3.93c0.37,0.37,0.78,0.71,1.15,1.04c-1.69,2.89-0.53,5.46,1.05,6.67
		c1.88,1.45,4.46,1.37,6.24-0.2c1.74-1.53,2.16-4.12,0.98-6.13c-0.59-1.01-1.44-1.74-2.55-2.13c-1.54-0.55-3.02-0.34-4.41,0.51
		c-1.54-1.54-3.05-3.05-4.55-4.58c-0.1-0.1-0.1-0.39-0.03-0.53c0.63-1.23,1.28-2.43,1.92-3.66c0.14-0.27,0.31-0.36,0.62-0.36
		c7.91,0.01,15.83,0.01,23.74,0c0.32,0,0.51,0.09,0.66,0.38c0.62,1.21,1.25,2.41,1.91,3.6c0.15,0.28,0.13,0.44-0.1,0.67
		c-1.25,1.22-2.48,2.46-3.71,3.71c-0.26,0.26-0.47,0.56-0.68,0.81c-2.76-1.63-5.44-0.67-6.77,1.14c-1.41,1.91-1.24,4.54,0.41,6.27
		c1.66,1.74,4.3,2.02,6.29,0.67c2.18-1.49,2.68-3.94,1.3-6.89c0.12-0.08,0.3-0.17,0.44-0.31c1.57-1.56,3.13-3.12,4.69-4.68
		c0.53-0.54,0.58-0.84,0.22-1.51c-0.58-1.11-1.17-2.21-1.76-3.32c-0.08-0.16-0.15-0.33-0.26-0.56c0.9,0,1.69,0.04,2.49,0
		c3.48-0.19,6.2-3.62,5.61-7.05c-0.55-3.18-2.97-5.25-6.24-5.29c-0.46,0-0.92-0.01-1.38-0.01C40.08,40.08,40.99,38.67,41.44,37.03
		 M16.78,63.7c1.67-0.01,3.01,1.32,3.01,2.98c0.01,1.63-1.32,2.98-2.95,2.99c-1.66,0.02-3.02-1.31-3.04-2.96
		C13.79,65.07,15.13,63.71,16.78,63.7 M31.02,69.67c-1.65,0.01-3.01-1.33-3.01-2.98C28,65.05,29.35,63.7,31,63.7
		c1.67,0,3,1.34,2.99,3C33.98,68.33,32.65,69.66,31.02,69.67 M9.99,28.67c0.01-2.69,1.96-4.65,4.65-4.66c2.99-0.01,5.97,0,8.95,0
		c2.95,0,5.9,0,8.84,0c2.84,0,4.76,1.93,4.76,4.77c0,1.68,0.01,3.36,0,5.05c-0.01,2.73-1.96,4.69-4.68,4.69
		c-5.95,0.01-11.9,0.01-17.86,0c-2.72,0-4.67-1.96-4.67-4.69C9.98,32.11,9.98,30.39,9.99,28.67 M40.05,43.02
		c1.93,0,3.4,0.77,4.22,2.54c1.26,2.7-0.66,5.89-3.63,6c-2.31,0.08-4.63,0.03-6.94,0.03c-3.34,0-6.67,0-10.01,0
		c-5.46,0-10.91,0-16.37,0c-2.16,0-3.77-1.13-4.36-3.02c-0.81-2.62,1.03-5.32,3.76-5.52c0.21-0.01,0.42-0.02,0.64-0.02h5.61
		c7.11,0,14.22,0,21.34,0C36.22,43.02,38.13,43.02,40.05,43.02"/>
	<path class="st0" d="M18.23,29.74c0.16,0.23,0.26,0.42,0.4,0.57c0.82,0.84,1.64,1.67,2.48,2.48c0.4,0.39,0.91,0.38,1.27,0.04
		c0.38-0.35,0.41-0.9,0.01-1.31c-1.19-1.21-2.39-2.41-3.61-3.6c-0.37-0.36-0.85-0.41-1.22-0.05c-1.26,1.22-2.5,2.47-3.72,3.72
		c-0.36,0.37-0.3,0.89,0.05,1.22c0.34,0.34,0.82,0.35,1.23,0.03c0.12-0.09,0.22-0.21,0.33-0.31C16.33,31.65,17.21,30.76,18.23,29.74
		 M29.04,29.81c0.96,0.97,1.87,1.89,2.79,2.81c0.54,0.54,1.07,0.6,1.48,0.18c0.4-0.41,0.34-0.93-0.17-1.44
		c-1.1-1.11-2.21-2.22-3.32-3.32c-0.56-0.55-1-0.55-1.56,0.01c-0.89,0.88-1.76,1.76-2.64,2.64c-0.29,0.29-0.6,0.58-0.87,0.89
		c-0.34,0.39-0.31,0.89,0.03,1.23c0.34,0.34,0.82,0.36,1.23,0.04c0.16-0.13,0.3-0.28,0.45-0.43C27.29,31.56,28.14,30.71,29.04,29.81
		"/>
	<path class="st0" d="M40.7,49.31c-1.08-0.01-1.96-0.89-1.96-1.97c0-1.08,0.89-1.96,1.97-1.96c1.12-0.01,2,0.88,1.98,2.01
		C42.67,48.49,41.8,49.32,40.7,49.31"/>
	<path class="st0" d="M34.37,49.31c-1.09-0.01-1.95-0.89-1.94-1.97c0.01-1.08,0.88-1.95,1.97-1.95c1.13,0,1.99,0.88,1.97,2.01
		C36.34,48.49,35.47,49.32,34.37,49.31"/>
	<text transform="matrix(1 0 0 1 6.144 49.6194)"><tspan x="0" y="0" class="st0 st3 st4">01011010</tspan><tspan x="20.78" y="0" class="st0 st3 st4">_</tspan></text>
</g>
</svg>
